# 3ds Max Wavefront OBJ Exporter v0.97b - (c)2007 guruware
# File Created: 24.07.2015 10:31:44

#
# object Plane001
#

v  -118.1102 0.0000 -59.0551
v  -118.1102 0.0000 59.0551
v  118.1102 0.0000 -59.0551
v  118.1102 0.0000 59.0551
v  -104.6859 0.0000 43.3160
v  -104.6859 0.0000 33.4734
v  -94.8434 0.0000 33.4734
v  -94.8434 0.0000 43.3160
v  -104.6859 39.3701 43.3160
v  -94.8434 39.3701 43.3160
v  -94.8434 39.3701 33.4734
v  -104.6859 39.3701 33.4734
v  -29.5276 0.0000 43.7697
v  -29.5276 0.0000 24.0847
v  29.5276 0.0000 24.0847
v  29.5276 0.0000 43.7697
v  -29.5276 39.3701 43.7697
v  29.5276 39.3701 43.7697
v  29.5276 39.3701 24.0847
v  -29.5276 39.3701 24.0847
v  -100.3937 24.6063 -55.1181
v  -100.3937 0.0000 -55.1181
v  -85.6299 24.6063 -55.1181
v  -85.6299 0.0000 -55.1181
v  -70.8661 24.6063 -55.1181
v  -70.8661 0.0000 -55.1181
v  -56.1024 24.6063 -55.1181
v  -56.1024 0.0000 -55.1181
v  -41.3386 24.6063 -55.1181
v  -41.3386 0.0000 -55.1181
v  -100.3937 49.2126 -55.1181
v  -85.6299 49.2126 -55.1181
v  -70.8661 49.2126 -55.1181
v  -56.1024 49.2126 -55.1181
v  -41.3386 49.2126 -55.1181
v  -100.3937 73.8189 -55.1181
v  -85.6299 73.8189 -55.1181
v  -70.8661 73.8189 -55.1181
v  -56.1024 73.8189 -55.1181
v  -41.3386 73.8189 -55.1181
v  -100.3937 98.4252 -55.1181
v  -85.6299 98.4252 -55.1181
v  -70.8661 98.4252 -55.1181
v  -56.1024 98.4252 -55.1181
v  -41.3386 98.4252 -55.1181
v  41.3386 24.6063 -55.1181
v  41.3386 0.0000 -55.1181
v  56.1024 24.6063 -55.1181
v  56.1024 0.0000 -55.1181
v  70.8661 24.6063 -55.1181
v  70.8661 0.0000 -55.1181
v  85.6299 24.6063 -55.1181
v  85.6299 0.0000 -55.1181
v  100.3937 24.6063 -55.1181
v  100.3937 0.0000 -55.1181
v  41.3386 49.2126 -55.1181
v  56.1024 49.2126 -55.1181
v  70.8661 49.2126 -55.1181
v  85.6299 49.2126 -55.1181
v  100.3937 49.2126 -55.1181
v  41.3386 73.8189 -55.1181
v  56.1024 73.8189 -55.1181
v  70.8661 73.8189 -55.1181
v  85.6299 73.8189 -55.1181
v  100.3937 73.8189 -55.1181
v  41.3386 98.4252 -55.1181
v  56.1024 98.4252 -55.1181
v  70.8661 98.4252 -55.1181
v  85.6299 98.4252 -55.1181
v  100.3937 98.4252 -55.1181
v  -29.5276 53.0956 -58.1836
v  -29.5276 88.5286 -58.1836
v  29.5276 88.5286 -58.1836
v  29.5276 53.0956 -58.1836
v  -28.5433 54.0798 -55.4277
v  28.5433 54.0798 -55.4277
v  28.5433 87.5444 -55.4277
v  -28.5433 87.5444 -55.4277
v  29.5276 53.0956 -55.4277
v  -29.5276 53.0956 -55.4277
v  29.5276 88.5286 -55.4277
v  -29.5276 88.5286 -55.4277
v  39.3701 0.0000 -59.0551
v  39.3701 98.4252 -59.0551
v  -78.7402 98.4252 -59.0551
v  -78.7402 0.0000 -59.0551
v  118.1102 98.4252 -59.0551
v  -118.1102 98.4252 -59.0551
v  -118.1102 94.4882 59.0551
v  118.1102 94.4882 59.0551
v  118.1102 114.1732 59.0551
v  -118.1102 114.1732 59.0551
v  118.1102 94.4882 -59.0551
v  118.1102 114.1732 -59.0551
v  -118.1102 94.4882 -59.0551
v  -118.1102 114.1732 -59.0551
v  112.5425 114.1732 53.4873
v  112.5425 94.4882 53.4873
v  -112.5425 94.4882 53.4873
v  -112.5425 114.1732 53.4873
v  112.5425 114.1732 -53.4873
v  112.5425 94.4882 -53.4873
v  -112.5425 94.4882 -53.4873
v  -112.5425 114.1732 -53.4873
# 104 vertices

vn 0.0000 1.0000 -0.0000
vn 0.0000 -1.0000 -0.0000
vn 0.0000 0.0000 1.0000
vn 1.0000 0.0000 -0.0000
vn 0.0000 0.0000 -1.0000
vn -1.0000 0.0000 -0.0000
# 6 vertex normals

vt 0.4878 0.2732 0.0000
vt 0.4878 0.5122 0.0000
vt 0.0100 0.2732 0.0000
vt 0.0100 0.5122 0.0000
vt 0.8187 0.0991 0.0000
vt 0.7988 0.0991 0.0000
vt 0.7988 0.0792 0.0000
vt 0.8187 0.0792 0.0000
vt 0.7708 0.0991 0.0000
vt 0.7708 0.0792 0.0000
vt 0.7907 0.0792 0.0000
vt 0.7907 0.0991 0.0000
vt 0.0100 0.9081 0.0000
vt 0.0100 0.8882 0.0000
vt 0.0896 0.8882 0.0000
vt 0.0896 0.9081 0.0000
vt 0.8666 0.0512 0.0000
vt 0.8666 0.0313 0.0000
vt 0.9463 0.0313 0.0000
vt 0.9463 0.0512 0.0000
vt 0.0773 0.2267 0.0000
vt 0.0574 0.2267 0.0000
vt 0.0574 0.1470 0.0000
vt 0.0773 0.1470 0.0000
vt 0.3645 0.0512 0.0000
vt 0.3645 0.0313 0.0000
vt 0.4441 0.0313 0.0000
vt 0.4441 0.0512 0.0000
vt 0.4441 0.0593 0.0000
vt 0.4441 0.0991 0.0000
vt 0.3246 0.0991 0.0000
vt 0.3246 0.0593 0.0000
vt 0.9463 0.0991 0.0000
vt 0.8268 0.0991 0.0000
vt 0.8268 0.0593 0.0000
vt 0.9463 0.0593 0.0000
vt 0.6594 0.2267 0.0000
vt 0.6594 0.1072 0.0000
vt 0.7391 0.1072 0.0000
vt 0.7391 0.2267 0.0000
vt 0.0775 0.0991 0.0000
vt 0.0775 0.0593 0.0000
vt 0.1571 0.0593 0.0000
vt 0.1571 0.0991 0.0000
vt 0.5717 0.2267 0.0000
vt 0.5717 0.1072 0.0000
vt 0.6513 0.1072 0.0000
vt 0.6513 0.2267 0.0000
vt 0.5717 0.0991 0.0000
vt 0.5717 0.0593 0.0000
vt 0.6513 0.0593 0.0000
vt 0.6513 0.0991 0.0000
vt 0.2948 0.2267 0.0000
vt 0.2450 0.2267 0.0000
vt 0.2948 0.1968 0.0000
vt 0.2450 0.1968 0.0000
vt 0.2948 0.1670 0.0000
vt 0.2450 0.1670 0.0000
vt 0.2948 0.1371 0.0000
vt 0.2450 0.1371 0.0000
vt 0.2948 0.1072 0.0000
vt 0.2450 0.1072 0.0000
vt 0.3446 0.2267 0.0000
vt 0.3446 0.1968 0.0000
vt 0.3446 0.1670 0.0000
vt 0.3446 0.1371 0.0000
vt 0.3446 0.1072 0.0000
vt 0.3943 0.2267 0.0000
vt 0.3943 0.1968 0.0000
vt 0.3943 0.1670 0.0000
vt 0.3943 0.1371 0.0000
vt 0.3943 0.1072 0.0000
vt 0.4441 0.2267 0.0000
vt 0.4441 0.1968 0.0000
vt 0.4441 0.1670 0.0000
vt 0.4441 0.1371 0.0000
vt 0.4441 0.1072 0.0000
vt 0.7969 0.2267 0.0000
vt 0.7472 0.2267 0.0000
vt 0.7969 0.1968 0.0000
vt 0.7472 0.1968 0.0000
vt 0.7969 0.1670 0.0000
vt 0.7472 0.1670 0.0000
vt 0.7969 0.1371 0.0000
vt 0.7472 0.1371 0.0000
vt 0.7969 0.1072 0.0000
vt 0.7472 0.1072 0.0000
vt 0.8467 0.2267 0.0000
vt 0.8467 0.1968 0.0000
vt 0.8467 0.1670 0.0000
vt 0.8467 0.1371 0.0000
vt 0.8467 0.1072 0.0000
vt 0.8965 0.2267 0.0000
vt 0.8965 0.1968 0.0000
vt 0.8965 0.1670 0.0000
vt 0.8965 0.1371 0.0000
vt 0.8965 0.1072 0.0000
vt 0.9463 0.2267 0.0000
vt 0.9463 0.1968 0.0000
vt 0.9463 0.1670 0.0000
vt 0.9463 0.1371 0.0000
vt 0.9463 0.1072 0.0000
vt 0.0854 0.1072 0.0000
vt 0.1571 0.1072 0.0000
vt 0.1571 0.2267 0.0000
vt 0.0854 0.2267 0.0000
vt 0.1672 0.2247 0.0000
vt 0.1672 0.1092 0.0000
vt 0.2349 0.1092 0.0000
vt 0.2349 0.2247 0.0000
vt 0.5374 0.2292 0.0000
vt 0.5374 0.1097 0.0000
vt 0.5429 0.1097 0.0000
vt 0.5429 0.2292 0.0000
vt 0.6674 0.0799 0.0000
vt 0.7391 0.0799 0.0000
vt 0.7391 0.0854 0.0000
vt 0.6674 0.0854 0.0000
vt 0.9706 0.1097 0.0000
vt 0.9706 0.2292 0.0000
vt 0.9650 0.2292 0.0000
vt 0.9650 0.1097 0.0000
vt 0.7391 0.0991 0.0000
vt 0.6674 0.0991 0.0000
vt 0.6674 0.0935 0.0000
vt 0.7391 0.0935 0.0000
vt 0.1652 0.2267 0.0000
vt 0.1652 0.1072 0.0000
vt 0.2369 0.1072 0.0000
vt 0.2369 0.2267 0.0000
vt 0.1693 0.7356 0.0000
vt 0.1693 0.5365 0.0000
vt 0.4082 0.5365 0.0000
vt 0.4082 0.7356 0.0000
vt 0.0100 0.7356 0.0000
vt 0.0100 0.5365 0.0000
vt 0.4878 0.5365 0.0000
vt 0.4878 0.7356 0.0000
vt 0.4878 0.7997 0.0000
vt 0.0100 0.7997 0.0000
vt 0.0100 0.7599 0.0000
vt 0.4878 0.7599 0.0000
vt 0.7511 0.7997 0.0000
vt 0.5122 0.7997 0.0000
vt 0.5122 0.7599 0.0000
vt 0.7511 0.7599 0.0000
vt 0.2489 0.8639 0.0000
vt 0.0100 0.8639 0.0000
vt 0.0100 0.8240 0.0000
vt 0.2489 0.8240 0.0000
vt 0.5122 0.2732 0.0000
vt 0.9900 0.2732 0.0000
vt 0.9900 0.3131 0.0000
vt 0.5122 0.3131 0.0000
vt 0.9675 0.5365 0.0000
vt 0.9675 0.5763 0.0000
vt 0.5122 0.5763 0.0000
vt 0.5122 0.5365 0.0000
vt 0.7286 0.6006 0.0000
vt 0.7286 0.6404 0.0000
vt 0.5122 0.6404 0.0000
vt 0.5122 0.6006 0.0000
vt 0.7286 0.4015 0.0000
vt 0.7286 0.4413 0.0000
vt 0.5122 0.4413 0.0000
vt 0.5122 0.4015 0.0000
vt 0.5122 0.3772 0.0000
vt 0.5122 0.3374 0.0000
vt 0.9675 0.3374 0.0000
vt 0.9675 0.3772 0.0000
vt 0.0100 0.0100 0.0000
vt 0.4878 0.0100 0.0000
vt 0.4766 0.0213 0.0000
vt 0.0213 0.0213 0.0000
vt 0.9900 0.2489 0.0000
vt 0.5122 0.2489 0.0000
vt 0.5234 0.2377 0.0000
vt 0.9787 0.2377 0.0000
vt 0.0100 0.2489 0.0000
vt 0.0213 0.2377 0.0000
vt 0.5122 0.0100 0.0000
vt 0.5234 0.0213 0.0000
vt 0.4878 0.2489 0.0000
vt 0.4766 0.2377 0.0000
vt 0.9900 0.0100 0.0000
vt 0.9787 0.0213 0.0000
# 186 texture coords

g Plane001
s 1
f 1/1/1 2/2/1 3/3/1 
f 4/4/1 3/3/1 2/2/1 
s 2
f 5/5/2 6/6/2 7/7/2 
f 7/7/2 8/8/2 5/5/2 
s 4
f 9/9/1 10/10/1 11/11/1 
f 11/11/1 12/12/1 9/9/1 
s 8
f 5/13/3 8/14/3 10/15/3 
f 10/15/3 9/16/3 5/13/3 
s 16
f 8/17/4 7/18/4 11/19/4 
f 11/19/4 10/20/4 8/17/4 
s 32
f 7/21/5 6/22/5 12/23/5 
f 12/23/5 11/24/5 7/21/5 
s 64
f 6/25/6 5/26/6 9/27/6 
f 9/27/6 12/28/6 6/25/6 
s 2
f 13/29/2 14/30/2 15/31/2 
f 15/31/2 16/32/2 13/29/2 
s 4
f 17/33/1 18/34/1 19/35/1 
f 19/35/1 20/36/1 17/33/1 
s 8
f 13/37/3 16/38/3 18/39/3 
f 18/39/3 17/40/3 13/37/3 
s 16
f 16/41/4 15/42/4 19/43/4 
f 19/43/4 18/44/4 16/41/4 
s 32
f 15/45/5 14/46/5 20/47/5 
f 20/47/5 19/48/5 15/45/5 
s 64
f 14/49/6 13/50/6 17/51/6 
f 17/51/6 20/52/6 14/49/6 
s 1
f 21/53/3 22/54/3 23/55/3 
f 24/56/3 23/55/3 22/54/3 
f 23/55/3 24/56/3 25/57/3 
f 26/58/3 25/57/3 24/56/3 
f 25/57/3 26/58/3 27/59/3 
f 28/60/3 27/59/3 26/58/3 
f 27/59/3 28/60/3 29/61/3 
f 30/62/3 29/61/3 28/60/3 
f 31/63/3 21/53/3 32/64/3 
f 23/55/3 32/64/3 21/53/3 
f 32/64/3 23/55/3 33/65/3 
f 25/57/3 33/65/3 23/55/3 
f 33/65/3 25/57/3 34/66/3 
f 27/59/3 34/66/3 25/57/3 
f 34/66/3 27/59/3 35/67/3 
f 29/61/3 35/67/3 27/59/3 
f 36/68/3 31/63/3 37/69/3 
f 32/64/3 37/69/3 31/63/3 
f 37/69/3 32/64/3 38/70/3 
f 33/65/3 38/70/3 32/64/3 
f 38/70/3 33/65/3 39/71/3 
f 34/66/3 39/71/3 33/65/3 
f 39/71/3 34/66/3 40/72/3 
f 35/67/3 40/72/3 34/66/3 
f 41/73/3 36/68/3 42/74/3 
f 37/69/3 42/74/3 36/68/3 
f 42/74/3 37/69/3 43/75/3 
f 38/70/3 43/75/3 37/69/3 
f 43/75/3 38/70/3 44/76/3 
f 39/71/3 44/76/3 38/70/3 
f 44/76/3 39/71/3 45/77/3 
f 40/72/3 45/77/3 39/71/3 
f 46/78/3 47/79/3 48/80/3 
f 49/81/3 48/80/3 47/79/3 
f 48/80/3 49/81/3 50/82/3 
f 51/83/3 50/82/3 49/81/3 
f 50/82/3 51/83/3 52/84/3 
f 53/85/3 52/84/3 51/83/3 
f 52/84/3 53/85/3 54/86/3 
f 55/87/3 54/86/3 53/85/3 
f 56/88/3 46/78/3 57/89/3 
f 48/80/3 57/89/3 46/78/3 
f 57/89/3 48/80/3 58/90/3 
f 50/82/3 58/90/3 48/80/3 
f 58/90/3 50/82/3 59/91/3 
f 52/84/3 59/91/3 50/82/3 
f 59/91/3 52/84/3 60/92/3 
f 54/86/3 60/92/3 52/84/3 
f 61/93/3 56/88/3 62/94/3 
f 57/89/3 62/94/3 56/88/3 
f 62/94/3 57/89/3 63/95/3 
f 58/90/3 63/95/3 57/89/3 
f 63/95/3 58/90/3 64/96/3 
f 59/91/3 64/96/3 58/90/3 
f 64/96/3 59/91/3 65/97/3 
f 60/92/3 65/97/3 59/91/3 
f 66/98/3 61/93/3 67/99/3 
f 62/94/3 67/99/3 61/93/3 
f 67/99/3 62/94/3 68/100/3 
f 63/95/3 68/100/3 62/94/3 
f 68/100/3 63/95/3 69/101/3 
f 64/96/3 69/101/3 63/95/3 
f 69/101/3 64/96/3 70/102/3 
f 65/97/3 70/102/3 64/96/3 
s 2
f 71/103/5 72/104/5 73/105/5 
f 73/105/5 74/106/5 71/103/5 
s 4
f 75/107/3 76/108/3 77/109/3 
f 77/109/3 78/110/3 75/107/3 
s 8
f 71/111/2 74/112/2 79/113/2 
f 79/113/2 80/114/2 71/111/2 
s 16
f 74/115/4 73/116/4 81/117/4 
f 81/117/4 79/118/4 74/115/4 
s 32
f 73/119/1 72/120/1 82/121/1 
f 82/121/1 81/122/1 73/119/1 
s 64
f 72/123/6 71/124/6 80/125/6 
f 80/125/6 82/126/6 72/123/6 
s off
f 80/127/3 79/128/3 76/108/3 
f 76/108/3 75/107/3 80/127/3 
f 79/128/3 81/129/3 77/109/3 
f 77/109/3 76/108/3 79/128/3 
f 81/129/3 82/130/3 78/110/3 
f 78/110/3 77/109/3 81/129/3 
f 82/130/3 80/127/3 75/107/3 
f 75/107/3 78/110/3 82/130/3 
s 1
f 83/131/3 84/132/3 85/133/3 
f 85/133/3 86/134/3 83/131/3 
f 3/135/3 87/136/3 84/132/3 
f 84/132/3 83/131/3 3/135/3 
f 88/137/3 1/138/3 86/134/3 
f 86/134/3 85/133/3 88/137/3 
s 8
f 89/139/3 90/140/3 91/141/3 
f 91/141/3 92/142/3 89/139/3 
s 16
f 90/143/4 93/144/4 94/145/4 
f 94/145/4 91/146/4 90/143/4 
s 64
f 95/147/6 89/148/6 92/149/6 
f 92/149/6 96/150/6 95/147/6 
s 1
f 96/151/5 94/152/5 93/153/5 
f 93/153/5 95/154/5 96/151/5 
s 8
f 97/155/5 98/156/5 99/157/5 
f 99/157/5 100/158/5 97/155/5 
s 16
f 101/159/6 102/160/6 98/161/6 
f 98/161/6 97/162/6 101/159/6 
s 64
f 100/163/4 99/164/4 103/165/4 
f 103/165/4 104/166/4 100/163/4 
s 1
f 102/167/3 101/168/3 104/169/3 
f 104/169/3 103/170/3 102/167/3 
s 2
f 90/171/2 89/172/2 99/173/2 
f 99/173/2 98/174/2 90/171/2 
f 92/175/1 91/176/1 97/177/1 
f 97/177/1 100/178/1 92/175/1 
f 93/179/2 90/171/2 98/174/2 
f 98/174/2 102/180/2 93/179/2 
f 91/176/1 94/181/1 101/182/1 
f 101/182/1 97/177/1 91/176/1 
f 89/172/2 95/183/2 103/184/2 
f 103/184/2 99/173/2 89/172/2 
f 96/185/1 92/175/1 100/178/1 
f 100/178/1 104/186/1 96/185/1 
f 94/181/1 96/185/1 104/186/1 
f 104/186/1 101/182/1 94/181/1 
f 95/183/2 93/179/2 102/180/2 
f 102/180/2 103/184/2 95/183/2 
# 148 faces

